<?xml version="1.0" encoding="UTF-8"?>
<svg width="180px" height="180px" viewBox="0 0 180 180" version="1.1" xmlns="http://www.w3.org/2000/svg" xmlns:xlink="http://www.w3.org/1999/xlink">
    <!-- Generator: Sketch 40 (33762) - http://www.bohemiancoding.com/sketch -->
    <title>love</title>
    <desc>Created with Sketch.</desc>
    <defs></defs>
    <g id="Page-1" stroke="none" stroke-width="1" fill="none" fill-rule="evenodd">
        <g id="love" fill="#000000">
            <path d="M86.1978406,147.122621 C116.42657,127.56723 136.226475,107.918237 146.048035,89.4161848 C154.062892,74.3176359 154.912502,60.8654903 149.875034,50.5702303 C140.278328,30.9570884 112.620938,27.6746229 95.1536276,46.6778106 L90,52.2845897 L84.8463724,46.6778106 C67.3790618,27.6746229 39.7216719,30.9570884 30.1249662,50.5702303 C25.0874979,60.8654903 25.9371081,74.3176359 33.9519651,89.4161848 C43.7735249,107.918237 63.57343,127.56723 93.8021594,147.122621 L86.1978406,147.122621 Z M90,41.9407099 C91.5988305,40.2012964 93.2605088,38.6240196 94.9715728,37.2035993 C139.812042,0.187692823 218.046812,70.1647122 90,153 C-38.0468116,70.1647122 40.1879582,0.187692823 84.9251324,37.1180903 C86.7394912,38.6240196 88.4011695,40.2012964 90,41.9407099 Z" id="For-You"></path>
        </g>
    </g>
</svg>
